<svg xmlns="http://www.w3.org/2000/svg" width="35.422" height="41.673" viewBox="0 0 35.422 41.673">
  <g id="Grupo_248" data-name="Grupo 248" transform="translate(-630.036 -6237.147)">
    <path id="Shape-13" d="M647.747,6257.984a10.418,10.418,0,1,1,10.33-10.5v.087A10.387,10.387,0,0,1,647.747,6257.984Zm0-17.861a7.443,7.443,0,1,0,7.38,7.5v-.062A7.42,7.42,0,0,0,647.747,6240.123Z" fill="#aaaeac"/>
    <path id="Shape-14" d="M663.981,6278.821h-32.47a1.484,1.484,0,0,1-1.475-1.488,16.322,16.322,0,0,1,16.236-16.371h2.952a16.321,16.321,0,0,1,16.234,16.371A1.484,1.484,0,0,1,663.981,6278.821Zm-17.711-14.882a13.309,13.309,0,0,0-13.194,11.906h29.34a13.313,13.313,0,0,0-13.194-11.906Z" fill="#aaaeac"/>
  </g>
</svg>
